<?xml version="1.0" encoding="utf-8"?>
<!-- Generator: Adobe Illustrator 16.0.0, SVG Export Plug-In . SVG Version: 6.00 Build 0)  -->
<!DOCTYPE svg PUBLIC "-//W3C//DTD SVG 1.1//EN" "http://www.w3.org/Graphics/SVG/1.1/DTD/svg11.dtd">
<svg version="1.1" id="Layer_1" xmlns="http://www.w3.org/2000/svg" xmlns:xlink="http://www.w3.org/1999/xlink" x="0px" y="0px"
	 width="1926px" height="1008px" viewBox="0 0 1926 1008" enable-background="new 0 0 1926 1008" xml:space="preserve">
<rect x="803.937" y="253.298" transform="matrix(0.9681 0.2505 -0.2505 0.9681 98.0566 -200.2472)" fill="none" stroke="#FFFFFF" stroke-width="3" stroke-miterlimit="10" width="63.649" height="63.649"/>
<rect x="809.982" y="666.893" transform="matrix(0.9677 -0.2523 0.2523 0.9677 -145.5847 230.4944)" fill="none" stroke="#FFFFFF" stroke-width="1.5177" stroke-miterlimit="10" width="32.199" height="32.199"/>
<polygon fill="none" stroke="#00BBD8" stroke-width="2.9379" stroke-miterlimit="10" points="243.571,636.955 231.75,616.48 
	243.571,596.006 267.212,596.006 279.033,616.48 267.212,636.955 "/>
<polygon fill="none" stroke="#00BBD8" stroke-width="4.8926" stroke-miterlimit="10" points="1716.515,508.333 1726.076,470.141 
	1763.932,459.324 1792.229,486.702 1782.67,524.895 1744.813,535.711 "/>
<g>
	<g>
		<polyline fill="none" stroke="#FFFFFF" stroke-width="1.0387" stroke-miterlimit="10" points="1213.626,428.39 1205.354,422.14 
			1197.083,428.39 		"/>
	</g>
	<g>
		<polyline fill="none" stroke="#FFFFFF" stroke-width="1.0387" stroke-miterlimit="10" points="1230.169,428.39 1221.897,422.14 
			1213.626,428.39 		"/>
	</g>
	<g>
		<polyline fill="none" stroke="#FFFFFF" stroke-width="1.0387" stroke-miterlimit="10" points="1246.659,428.39 1238.388,422.14 
			1230.116,428.39 		"/>
	</g>
	<g>
		<polyline fill="none" stroke="#FFFFFF" stroke-width="1.0387" stroke-miterlimit="10" points="1263.202,428.39 1254.931,422.14 
			1246.659,428.39 		"/>
	</g>
	<g>
		<polyline fill="none" stroke="#FFFFFF" stroke-width="1.0387" stroke-miterlimit="10" points="1279.745,428.39 1271.474,422.14 
			1263.202,428.39 		"/>
	</g>
	<g>
		<polyline fill="none" stroke="#FFFFFF" stroke-width="1.0387" stroke-miterlimit="10" points="1296.288,428.39 1288.017,422.14 
			1279.745,428.39 		"/>
	</g>
</g>
<g>
	<g>
		<polyline fill="none" stroke="#FFFFFF" stroke-width="1.0387" stroke-miterlimit="10" points="1213.626,454.838 1205.354,448.588 
			1197.083,454.838 		"/>
	</g>
	<g>
		<polyline fill="none" stroke="#FFFFFF" stroke-width="1.0387" stroke-miterlimit="10" points="1230.169,454.838 1221.897,448.588 
			1213.626,454.838 		"/>
	</g>
	<g>
		<polyline fill="none" stroke="#FFFFFF" stroke-width="1.0387" stroke-miterlimit="10" points="1246.659,454.838 1238.388,448.588 
			1230.116,454.838 		"/>
	</g>
	<g>
		<polyline fill="none" stroke="#FFFFFF" stroke-width="1.0387" stroke-miterlimit="10" points="1263.202,454.838 1254.931,448.588 
			1246.659,454.838 		"/>
	</g>
	<g>
		<polyline fill="none" stroke="#FFFFFF" stroke-width="1.0387" stroke-miterlimit="10" points="1279.745,454.838 1271.474,448.588 
			1263.202,454.838 		"/>
	</g>
	<g>
		<polyline fill="none" stroke="#FFFFFF" stroke-width="1.0387" stroke-miterlimit="10" points="1296.288,454.838 1288.017,448.588 
			1279.745,454.838 		"/>
	</g>
</g>
<g>
	<g>
		<polyline fill="none" stroke="#FFFFFF" stroke-width="1.0387" stroke-miterlimit="10" points="1213.626,441.226 1205.354,434.976 
			1197.083,441.226 		"/>
	</g>
	<g>
		<polyline fill="none" stroke="#FFFFFF" stroke-width="1.0387" stroke-miterlimit="10" points="1230.169,441.226 1221.897,434.976 
			1213.626,441.226 		"/>
	</g>
	<g>
		<polyline fill="none" stroke="#FFFFFF" stroke-width="1.0387" stroke-miterlimit="10" points="1246.659,441.226 1238.388,434.976 
			1230.116,441.226 		"/>
	</g>
	<g>
		<polyline fill="none" stroke="#FFFFFF" stroke-width="1.0387" stroke-miterlimit="10" points="1263.202,441.226 1254.931,434.976 
			1246.659,441.226 		"/>
	</g>
	<g>
		<polyline fill="none" stroke="#FFFFFF" stroke-width="1.0387" stroke-miterlimit="10" points="1279.745,441.226 1271.474,434.976 
			1263.202,441.226 		"/>
	</g>
	<g>
		<polyline fill="none" stroke="#FFFFFF" stroke-width="1.0387" stroke-miterlimit="10" points="1296.288,441.226 1288.017,434.976 
			1279.745,441.226 		"/>
	</g>
</g>
<g>
	<g>
		<polyline fill="none" stroke="#FFFFFF" stroke-miterlimit="10" points="119.726,208.027 101.883,210.674 99.557,228.561 		"/>
	</g>
	<g>
		<polyline fill="none" stroke="#FFFFFF" stroke-miterlimit="10" points="139.895,187.494 122.053,190.141 119.726,208.027 		"/>
	</g>
	<g>
		<polyline fill="none" stroke="#FFFFFF" stroke-miterlimit="10" points="160,167.028 142.158,169.673 139.831,187.56 		"/>
	</g>
	<g>
		<polyline fill="none" stroke="#FFFFFF" stroke-miterlimit="10" points="180.169,146.494 162.327,149.14 160,167.028 		"/>
	</g>
	<g>
		<polyline fill="none" stroke="#FFFFFF" stroke-miterlimit="10" points="200.338,125.961 182.496,128.608 180.169,146.494 		"/>
	</g>
	<g>
		<polyline fill="none" stroke="#FFFFFF" stroke-miterlimit="10" points="220.508,105.427 202.666,108.074 200.338,125.961 		"/>
	</g>
</g>
<g>
	<g>
		<polyline fill="none" stroke="#FFFFFF" stroke-miterlimit="10" points="152.553,240.273 134.711,242.919 132.384,260.806 		"/>
	</g>
	<g>
		<polyline fill="none" stroke="#FFFFFF" stroke-miterlimit="10" points="172.722,219.74 154.879,222.386 152.553,240.273 		"/>
	</g>
	<g>
		<polyline fill="none" stroke="#FFFFFF" stroke-miterlimit="10" points="192.827,199.272 174.985,201.918 172.658,219.805 		"/>
	</g>
	<g>
		<polyline fill="none" stroke="#FFFFFF" stroke-miterlimit="10" points="212.996,178.739 195.154,181.385 192.827,199.272 		"/>
	</g>
	<g>
		<polyline fill="none" stroke="#FFFFFF" stroke-miterlimit="10" points="233.165,158.206 215.324,160.852 212.996,178.739 		"/>
	</g>
	<g>
		<polyline fill="none" stroke="#FFFFFF" stroke-miterlimit="10" points="253.334,137.672 235.492,140.319 233.165,158.206 		"/>
	</g>
</g>
<g>
	<g>
		<polyline fill="none" stroke="#FFFFFF" stroke-miterlimit="10" points="135.658,223.677 117.816,226.324 115.489,244.21 		"/>
	</g>
	<g>
		<polyline fill="none" stroke="#FFFFFF" stroke-miterlimit="10" points="155.827,203.144 137.985,205.791 135.658,223.677 		"/>
	</g>
	<g>
		<polyline fill="none" stroke="#FFFFFF" stroke-miterlimit="10" points="175.932,182.676 158.09,185.323 155.763,203.209 		"/>
	</g>
	<g>
		<polyline fill="none" stroke="#FFFFFF" stroke-miterlimit="10" points="196.102,162.143 178.259,164.79 175.932,182.676 		"/>
	</g>
	<g>
		<polyline fill="none" stroke="#FFFFFF" stroke-miterlimit="10" points="216.27,141.611 198.428,144.256 196.102,162.143 		"/>
	</g>
	<g>
		<polyline fill="none" stroke="#FFFFFF" stroke-miterlimit="10" points="236.439,121.077 218.597,123.723 216.27,141.611 		"/>
	</g>
</g>
<g>
	<g>
		<circle fill="#06B4D5" cx="101.083" cy="856.141" r="3.417"/>
		<circle fill="#06B4D5" cx="101.083" cy="883.974" r="3.417"/>
	</g>
	<g>
		<circle fill="#06B4D5" cx="101.083" cy="911.307" r="3.417"/>
		<circle fill="#06B4D5" cx="101.083" cy="939.141" r="3.417"/>
	</g>
	<g>
		<circle fill="#06B4D5" cx="101.083" cy="966.807" r="3.417"/>
		<circle fill="#06B4D5" cx="101.083" cy="994.641" r="3.417"/>
	</g>
	<g>
		<circle fill="#06B4D5" cx="59.75" cy="856.141" r="3.417"/>
		<circle fill="#06B4D5" cx="59.75" cy="883.974" r="3.417"/>
	</g>
	<g>
		<circle fill="#06B4D5" cx="59.75" cy="911.307" r="3.417"/>
		<circle fill="#06B4D5" cx="59.75" cy="939.141" r="3.417"/>
	</g>
	<g>
		<circle fill="#06B4D5" cx="59.75" cy="966.807" r="3.417"/>
		<circle fill="#06B4D5" cx="59.75" cy="994.641" r="3.417"/>
	</g>
	<g>
		<circle fill="#06B4D5" cx="18.583" cy="856.141" r="3.417"/>
		<circle fill="#06B4D5" cx="18.583" cy="883.974" r="3.417"/>
	</g>
	<g>
		<circle fill="#06B4D5" cx="18.583" cy="911.307" r="3.417"/>
		<circle fill="#06B4D5" cx="18.583" cy="939.141" r="3.417"/>
	</g>
	<g>
		<circle fill="#06B4D5" cx="18.583" cy="966.807" r="3.417"/>
		<circle fill="#06B4D5" cx="18.583" cy="994.641" r="3.417"/>
	</g>
</g>
<g>
	<g>
		<circle fill="#06B4D5" cx="1911.657" cy="13.307" r="3.417"/>
		<circle fill="#06B4D5" cx="1911.657" cy="41.14" r="3.417"/>
	</g>
	<g>
		<circle fill="#06B4D5" cx="1911.657" cy="68.473" r="3.417"/>
		<circle fill="#06B4D5" cx="1911.657" cy="96.307" r="3.417"/>
	</g>
	<g>
		<circle fill="#06B4D5" cx="1911.657" cy="123.973" r="3.417"/>
		<circle fill="#06B4D5" cx="1911.657" cy="151.807" r="3.417"/>
	</g>
	<g>
		<circle fill="#06B4D5" cx="1870.323" cy="13.307" r="3.416"/>
		<circle fill="#06B4D5" cx="1870.323" cy="41.14" r="3.416"/>
	</g>
	<g>
		<circle fill="#06B4D5" cx="1870.323" cy="68.473" r="3.416"/>
		<circle fill="#06B4D5" cx="1870.323" cy="96.307" r="3.416"/>
	</g>
	<g>
		<circle fill="#06B4D5" cx="1870.323" cy="123.973" r="3.416"/>
		<circle fill="#06B4D5" cx="1870.323" cy="151.807" r="3.416"/>
	</g>
	<g>
		<circle fill="#06B4D5" cx="1829.157" cy="13.307" r="3.417"/>
		<circle fill="#06B4D5" cx="1829.157" cy="41.14" r="3.417"/>
	</g>
	<g>
		<circle fill="#06B4D5" cx="1829.157" cy="68.473" r="3.417"/>
		<circle fill="#06B4D5" cx="1829.157" cy="96.307" r="3.417"/>
	</g>
	<g>
		<circle fill="#06B4D5" cx="1829.157" cy="123.973" r="3.417"/>
		<circle fill="#06B4D5" cx="1829.157" cy="151.807" r="3.417"/>
	</g>
</g>
</svg>
